<svg width="30" height="27" viewBox="0 0 30 27" fill="none" xmlns="http://www.w3.org/2000/svg">
<path d="M6.69922 26.7104H23.2153C25.0708 26.7104 26.1572 25.6484 26.1572 23.8418V12.4038L27.6465 13.6489C27.9395 13.8931 28.269 14.1006 28.6475 14.1006C29.3555 14.1006 29.8926 13.6611 29.8926 12.9653C29.8926 12.5503 29.7339 12.2207 29.4165 11.9644L26.1572 9.21777V4.02979C26.1572 3.48047 25.8032 3.12646 25.2539 3.12646H23.606C23.0688 3.12646 22.7026 3.48047 22.7026 4.02979V6.3125L16.7212 1.2832C15.6714 0.404297 14.353 0.404297 13.291 1.2832L0.571289 11.9644C0.253906 12.2329 0.0952148 12.5869 0.0952148 12.9287C0.0952148 13.5635 0.571289 14.1006 1.35254 14.1006C1.73096 14.1006 2.06055 13.8931 2.35352 13.6489L3.75732 12.4771V23.8418C3.75732 25.6484 4.84375 26.7104 6.69922 26.7104ZM18.5034 16.3101C18.5034 15.7363 18.1372 15.3701 17.5635 15.3701H12.4243C11.8628 15.3701 11.4722 15.7363 11.4722 16.3101V24.3179H7.33398C6.56494 24.3179 6.1499 23.8906 6.1499 23.1216V10.4629L14.4873 3.48047C14.8169 3.1875 15.1953 3.1875 15.5249 3.48047L23.7646 10.3896V23.1216C23.7646 23.8906 23.3496 24.3179 22.5806 24.3179H18.5034V16.3101Z" fill="#0E3049"/>
</svg>
