<svg width="22" height="21" viewBox="0 0 22 21" fill="none" xmlns="http://www.w3.org/2000/svg">
<path d="M0.782715 10.6865C0.782715 11.4434 1.40527 12.0537 2.1499 12.0537H9.63281V19.5366C9.63281 20.2812 10.2554 20.9038 11 20.9038C11.7446 20.9038 12.3672 20.2812 12.3672 19.5366V12.0537H19.8501C20.5947 12.0537 21.2173 11.4434 21.2173 10.6865C21.2173 9.94189 20.5947 9.31934 19.8501 9.31934H12.3672V1.83643C12.3672 1.0918 11.7446 0.469238 11 0.469238C10.2554 0.469238 9.63281 1.0918 9.63281 1.83643V9.31934H2.1499C1.40527 9.31934 0.782715 9.94189 0.782715 10.6865Z" fill="#0E3049"/>
</svg>
