<svg width="30" height="28" viewBox="0 0 26 28" fill="none" xmlns="http://www.w3.org/2000/svg">
<path d="M0.894531 15.0391C0.894531 21.6719 6.37891 27.1445 13 27.1445C19.6211 27.1445 25.1055 21.6719 25.1055 15.0391C25.1055 11.2422 23.2188 7.65625 20.3594 5.52344C19.7383 5.00781 18.9766 5.11328 18.6016 5.65234C18.1914 6.22656 18.3672 6.90625 18.918 7.375C21.2266 9.14453 22.7148 11.8984 22.7266 15.0391C22.7266 20.4297 18.3906 24.7656 13 24.7656C7.60938 24.7656 3.28516 20.4297 3.28516 15.0391C3.28516 10.4805 6.37891 6.68359 10.5977 5.64062V7.30469C10.5977 8.19531 11.2539 8.45312 11.9805 7.9375L15.918 5.13672C16.5039 4.72656 16.5039 4.07031 15.918 3.64844L11.9922 0.847656C11.2656 0.332031 10.5977 0.566406 10.5977 1.48047V3.19141C5.10156 4.30469 0.894531 9.22656 0.894531 15.0391Z" fill="#0E3049"/>
</svg>
