<svg width="26" height="25" viewBox="0 0 26 25" fill="none" xmlns="http://www.w3.org/2000/svg">
<path d="M25.082 5.85156V1.45703C25.082 0.753906 24.5078 0.296875 23.8281 0.4375L17.793 1.75C16.9844 1.92578 16.5391 2.37109 16.5391 3.09766L16.5508 16.082C16.5977 16.5977 16.3633 16.9258 15.9062 17.0195L14.0312 17.4062C11.6172 17.9102 10.457 19.1523 10.457 21.0156C10.457 22.8906 11.8984 24.2031 13.9375 24.2031C15.8477 24.2031 18.3789 22.7617 18.3789 19.4102V8.67578C18.3789 8.11328 18.4492 8.03125 18.9531 7.92578L24.3555 6.74219C24.8008 6.64844 25.082 6.29688 25.082 5.85156ZM1.76172 6.39062H12.1562C12.625 6.39062 13 6.00391 13 5.54688C13 5.07812 12.625 4.70312 12.1562 4.70312H1.76172C1.29297 4.70312 0.917969 5.07812 0.917969 5.54688C0.917969 6.00391 1.29297 6.39062 1.76172 6.39062ZM1.76172 10.5625H12.1562C12.6367 10.5625 13 10.1758 13 9.70703C13 9.25 12.625 8.875 12.1562 8.875H1.76172C1.29297 8.875 0.917969 9.25 0.917969 9.70703C0.917969 10.1758 1.29297 10.5625 1.76172 10.5625ZM1.76172 14.7344H12.1562C12.6367 14.7344 13 14.3594 13 13.8906C13 13.4336 12.625 13.0469 12.1562 13.0469H1.76172C1.29297 13.0469 0.917969 13.4336 0.917969 13.8906C0.917969 14.3594 1.29297 14.7344 1.76172 14.7344Z" fill="black"/>
</svg>
